<svg width="40" height="40" viewBox="0 0 40 40" fill="none" xmlns="http://www.w3.org/2000/svg">
<path fill-rule="evenodd" clip-rule="evenodd" d="M9.79834 4.79833C8.33334 6.26167 8.33334 8.62 8.33334 13.3333V26.6667C8.33334 31.38 8.33334 33.7383 9.79834 35.2017C11.2617 36.6667 13.62 36.6667 18.3333 36.6667H21.6667C26.38 36.6667 28.7383 36.6667 30.2017 35.2017C31.6667 33.7383 31.6667 31.38 31.6667 26.6667V13.3333C31.6667 8.62 31.6667 6.26167 30.2017 4.79833C28.7383 3.33333 26.38 3.33333 21.6667 3.33333H18.3333C13.62 3.33333 11.2617 3.33333 9.79834 4.79833ZM13.75 28.3333C13.75 28.0018 13.8817 27.6839 14.1161 27.4494C14.3505 27.215 14.6685 27.0833 15 27.0833H20C20.3315 27.0833 20.6495 27.215 20.8839 27.4494C21.1183 27.6839 21.25 28.0018 21.25 28.3333C21.25 28.6649 21.1183 28.9828 20.8839 29.2172C20.6495 29.4516 20.3315 29.5833 20 29.5833H15C14.6685 29.5833 14.3505 29.4516 14.1161 29.2172C13.8817 28.9828 13.75 28.6649 13.75 28.3333ZM15 20.4167C14.6685 20.4167 14.3505 20.5484 14.1161 20.7828C13.8817 21.0172 13.75 21.3351 13.75 21.6667C13.75 21.9982 13.8817 22.3161 14.1161 22.5505C14.3505 22.785 14.6685 22.9167 15 22.9167H25C25.3315 22.9167 25.6495 22.785 25.8839 22.5505C26.1183 22.3161 26.25 21.9982 26.25 21.6667C26.25 21.3351 26.1183 21.0172 25.8839 20.7828C25.6495 20.5484 25.3315 20.4167 25 20.4167H15ZM13.75 15C13.75 14.6685 13.8817 14.3505 14.1161 14.1161C14.3505 13.8817 14.6685 13.75 15 13.75H25C25.3315 13.75 25.6495 13.8817 25.8839 14.1161C26.1183 14.3505 26.25 14.6685 26.25 15C26.25 15.3315 26.1183 15.6495 25.8839 15.8839C25.6495 16.1183 25.3315 16.25 25 16.25H15C14.6685 16.25 14.3505 16.1183 14.1161 15.8839C13.8817 15.6495 13.75 15.3315 13.75 15Z" fill="white" fill-opacity="0.84"/>
<path opacity="0.5" d="M8.72501 6.76333C8.33334 8.235 8.33334 10.295 8.33334 13.3333V26.6667C8.33334 29.705 8.33334 31.7633 8.72501 33.2367L8.33334 33.2067C6.70834 33.0467 5.61501 32.685 4.79834 31.8683C3.33334 30.405 3.33334 28.0467 3.33334 23.3333V16.6667C3.33334 11.9517 3.33334 9.595 4.79834 8.13167C5.61501 7.315 6.70834 6.95333 8.33334 6.79333L8.72501 6.76333ZM31.275 33.2367C31.6667 31.7633 31.6667 29.7033 31.6667 26.6667V13.3333C31.6667 10.295 31.6667 8.235 31.275 6.76333L31.6667 6.79333C33.2917 6.95333 34.385 7.315 35.2017 8.13167C36.6667 9.595 36.6667 11.95 36.6667 16.665V23.3317C36.6667 28.0483 36.6667 30.4033 35.2017 31.8683C34.385 32.685 33.2917 33.0467 31.6667 33.2067L31.275 33.2367Z" fill="white" fill-opacity="0.84"/>
</svg>
