<svg width="70" height="70" viewBox="0 0 70 70" fill="none" xmlns="http://www.w3.org/2000/svg">
<path d="M32.0833 26.25H43.75C45.2971 26.25 46.7808 25.6354 47.8748 24.5415C48.9688 23.4475 49.5833 21.9638 49.5833 20.4167V8.75M32.0833 26.25C32.0833 29.4717 29.4717 32.0833 26.25 32.0833C23.0283 32.0833 20.4167 29.4717 20.4167 26.25C20.4167 23.0283 23.0283 20.4167 26.25 20.4167C29.4717 20.4167 32.0833 23.0283 32.0833 26.25ZM20.4167 61.25V49.5833C20.4167 48.0362 21.0312 46.5525 22.1252 45.4585C23.2192 44.3646 24.7029 43.75 26.25 43.75H37.9167M37.9167 43.75C37.9167 46.9717 40.5283 49.5833 43.75 49.5833C46.9717 49.5833 49.5833 46.9717 49.5833 43.75C49.5833 40.5283 46.9717 37.9167 43.75 37.9167C40.5283 37.9167 37.9167 40.5283 37.9167 43.75ZM14.5833 8.75H55.4167C58.6383 8.75 61.25 11.3617 61.25 14.5833V55.4167C61.25 58.6383 58.6383 61.25 55.4167 61.25H14.5833C11.3617 61.25 8.75 58.6383 8.75 55.4167V14.5833C8.75 11.3617 11.3617 8.75 14.5833 8.75Z" stroke="url(#paint0_linear_33_732)" stroke-width="2" stroke-linecap="round" stroke-linejoin="round"/>
<defs>
<linearGradient id="paint0_linear_33_732" x1="35" y1="8.75" x2="35" y2="61.25" gradientUnits="userSpaceOnUse">
<stop stop-color="#2C47D6"/>
<stop offset="1" stop-color="#691C95"/>
</linearGradient>
</defs>
</svg>
