<svg width="69" height="69" viewBox="0 0 69 69" fill="none" xmlns="http://www.w3.org/2000/svg">
<path d="M61.9275 43.125H48.875C47.35 43.125 45.8875 43.7308 44.8091 44.8091C43.7308 45.8875 43.125 47.35 43.125 48.875V61.9275M20.125 9.6025V14.375C20.125 16.6625 21.0337 18.8563 22.6512 20.4738C24.2687 22.0913 26.4625 23 28.75 23C30.275 23 31.7375 23.6058 32.8159 24.6841C33.8942 25.7625 34.5 27.225 34.5 28.75C34.5 31.9125 37.0875 34.5 40.25 34.5C41.775 34.5 43.2375 33.8942 44.3159 32.8159C45.3942 31.7375 46 30.275 46 28.75C46 25.5875 48.5875 23 51.75 23H60.8638M31.625 63.1063V51.75C31.625 50.225 31.0192 48.7625 29.9409 47.6841C28.8625 46.6058 27.4 46 25.875 46C24.35 46 22.8875 45.3942 21.8091 44.3159C20.7308 43.2375 20.125 41.775 20.125 40.25V37.375C20.125 35.85 19.5192 34.3875 18.4409 33.3091C17.3625 32.2308 15.9 31.625 14.375 31.625H5.89375M63.25 34.5C63.25 50.3782 50.3782 63.25 34.5 63.25C18.6218 63.25 5.75 50.3782 5.75 34.5C5.75 18.6218 18.6218 5.75 34.5 5.75C50.3782 5.75 63.25 18.6218 63.25 34.5Z" stroke="url(#paint0_linear_33_745)" stroke-width="2" stroke-linecap="round" stroke-linejoin="round"/>
<defs>
<linearGradient id="paint0_linear_33_745" x1="34.5" y1="5.75" x2="34.5" y2="63.25" gradientUnits="userSpaceOnUse">
<stop stop-color="#2F46D3"/>
<stop offset="1" stop-color="#691D95"/>
</linearGradient>
</defs>
</svg>
