<svg width="62" height="62" viewBox="0 0 62 62" fill="none" xmlns="http://www.w3.org/2000/svg">
<path d="M28.4167 38.7501H33.5833C34.9536 38.7501 36.2678 38.2057 37.2367 37.2368C38.2057 36.2679 38.75 34.9537 38.75 33.5834C38.75 32.2131 38.2057 30.899 37.2367 29.93C36.2678 28.9611 34.9536 28.4167 33.5833 28.4167H25.8333C24.2833 28.4167 22.9917 28.9334 22.2167 29.9667L7.75 43.9167M18.0833 54.2501L22.2167 50.6334C22.9917 49.6001 24.2833 49.0834 25.8333 49.0834H36.1667C39.0083 49.0834 41.5917 48.0501 43.4 45.9834L55.2833 34.6167C56.2802 33.6747 56.862 32.3752 56.9008 31.0041C56.9395 29.6331 56.4321 28.3028 55.49 27.3059C54.5479 26.309 53.2484 25.7272 51.8774 25.6885C50.5063 25.6497 49.176 26.1572 48.1792 27.0992L37.3292 37.1742M5.16666 41.3334L20.6667 56.8334M48.825 23.2501C48.825 27.3876 45.4709 30.7417 41.3333 30.7417C37.1958 30.7417 33.8417 27.3876 33.8417 23.2501C33.8417 19.1125 37.1958 15.7584 41.3333 15.7584C45.4709 15.7584 48.825 19.1125 48.825 23.2501ZM23.25 12.9167C23.25 17.197 19.7802 20.6667 15.5 20.6667C11.2198 20.6667 7.75 17.197 7.75 12.9167C7.75 8.63654 11.2198 5.16675 15.5 5.16675C19.7802 5.16675 23.25 8.63654 23.25 12.9167Z" stroke="url(#paint0_linear_33_789)" stroke-width="2" stroke-linecap="round" stroke-linejoin="round"/>
<defs>
<linearGradient id="paint0_linear_33_789" x1="31.0348" y1="5.16675" x2="31.0348" y2="56.8334" gradientUnits="userSpaceOnUse">
<stop stop-color="#3950D7"/>
<stop offset="1" stop-color="#6C2A9F"/>
</linearGradient>
</defs>
</svg>
