<svg width="54" height="54" viewBox="0 0 54 54" fill="none" xmlns="http://www.w3.org/2000/svg">
<path d="M29.25 18.7201C30.6882 21.2427 31.4445 24.0963 31.4445 27.0001C31.4445 29.9038 30.6882 32.7575 29.25 35.2801M37.035 13.9726C39.2829 17.9465 40.4642 22.4345 40.4642 27.0001C40.4642 31.5657 39.2829 36.0537 37.035 40.0276M44.7975 9.2251C47.8971 14.6355 49.5296 20.7617 49.5336 26.9971C49.5375 33.2325 47.9127 39.3608 44.82 44.7751M6.75 13.5001H18C19.2426 13.5001 20.25 14.5075 20.25 15.7501V38.2501C20.25 39.4927 19.2426 40.5001 18 40.5001H6.75C5.50736 40.5001 4.5 39.4927 4.5 38.2501V15.7501C4.5 14.5075 5.50736 13.5001 6.75 13.5001Z" stroke="url(#paint0_linear_33_797)" stroke-width="2" stroke-linecap="round" stroke-linejoin="round"/>
<defs>
<linearGradient id="paint0_linear_33_797" x1="27.0168" y1="9.2251" x2="27.0168" y2="44.7751" gradientUnits="userSpaceOnUse">
<stop stop-color="#3A51D8"/>
<stop offset="1" stop-color="#6A2EA3"/>
</linearGradient>
</defs>
</svg>
